<?xml version="1.0" encoding="UTF-8" standalone="no"?>
<!DOCTYPE svg PUBLIC "-//W3C//DTD SVG 1.1//EN"
 "http://www.w3.org/Graphics/SVG/1.1/DTD/svg11.dtd">
<!-- Generated by graphviz version 12.1.0 (20240811.2233)
 -->
<!-- Title: palaiologos_parser Pages: 1 -->
<svg width="735pt" height="1394pt"
 viewBox="0.00 0.00 735.00 1394.47" xmlns="http://www.w3.org/2000/svg" xmlns:xlink="http://www.w3.org/1999/xlink">
<g id="graph0" class="graph" transform="scale(1 1) rotate(0) translate(4 1390.47)">
<title>palaiologos_parser</title>
<polygon fill="white" stroke="none" points="-4,4 -4,-1390.47 731,-1390.47 731,4 -4,4"/>
<g id="clust1" class="cluster">
<title>cluster_initial_maybelf</title>
<polygon fill="none" stroke="black" points="8,-545.23 8,-1323.47 150,-1323.47 150,-545.23 8,-545.23"/>
<text text-anchor="middle" x="79" y="-1306.17" font-family="Times,serif" font-size="14.00">Initial MaybeLF</text>
</g>
<g id="clust2" class="cluster">
<title>cluster_label_maybelf</title>
<polygon fill="none" stroke="black" points="163,-8 163,-935.73 359,-935.73 359,-8 163,-8"/>
<text text-anchor="middle" x="261" y="-918.43" font-family="Times,serif" font-size="14.00">MaybeLF</text>
</g>
<!-- start -->
<g id="node1" class="node">
<title>start</title>
<text text-anchor="middle" x="73" y="-1363.42" font-family="Times,serif" font-size="14.00">start</text>
</g>
<!-- a -->
<g id="node2" class="node">
<title>a</title>
<ellipse fill="none" stroke="black" cx="73" cy="-1272.97" rx="18" ry="18"/>
<text text-anchor="middle" x="73" y="-1267.92" font-family="Times,serif" font-size="14.00">a</text>
</g>
<!-- start&#45;&gt;a -->
<g id="edge1" class="edge">
<title>start&#45;&gt;a</title>
<path fill="none" stroke="black" d="M73,-1350.75C73,-1337.36 73,-1318.26 73,-1302.46"/>
<polygon fill="black" stroke="black" points="76.5,-1302.68 73,-1292.68 69.5,-1302.68 76.5,-1302.68"/>
</g>
<!-- a0 -->
<g id="node3" class="node">
<title>a0</title>
<ellipse fill="none" stroke="black" cx="73" cy="-1182.85" rx="19.62" ry="19.62"/>
<text text-anchor="middle" x="73" y="-1177.8" font-family="Times,serif" font-size="14.00">a0</text>
</g>
<!-- a&#45;&gt;a0 -->
<g id="edge2" class="edge">
<title>a&#45;&gt;a0</title>
<path fill="none" stroke="black" d="M73,-1254.56C73,-1243 73,-1227.51 73,-1213.98"/>
<polygon fill="black" stroke="black" points="76.5,-1214.26 73,-1204.26 69.5,-1214.26 76.5,-1214.26"/>
<text text-anchor="middle" x="76" y="-1223.67" font-family="Times,serif" font-size="14.00">ε</text>
</g>
<!-- h -->
<g id="node10" class="node">
<title>h</title>
<ellipse fill="none" stroke="black" cx="229" cy="-885.23" rx="18" ry="18"/>
<text text-anchor="middle" x="229" y="-880.18" font-family="Times,serif" font-size="14.00">h</text>
</g>
<!-- a&#45;&gt;h -->
<g id="edge17" class="edge">
<title>a&#45;&gt;h</title>
<path fill="none" stroke="black" d="M91.24,-1270.37C133,-1265.61 232,-1247.6 232,-1183.85 232,-1183.85 232,-1183.85 232,-999.23 232,-970.45 231.02,-937.56 230.17,-914.72"/>
<polygon fill="black" stroke="black" points="233.68,-914.82 229.8,-904.97 226.69,-915.09 233.68,-914.82"/>
<text text-anchor="middle" x="235" y="-1087.68" font-family="Times,serif" font-size="14.00">ε</text>
</g>
<!-- a0&#45;&gt;a0 -->
<g id="edge3" class="edge">
<title>a0&#45;&gt;a0</title>
<path fill="none" stroke="black" d="M91.19,-1191.04C101.31,-1192.56 110.62,-1189.83 110.62,-1182.85 110.62,-1178.7 107.34,-1176.05 102.55,-1174.9"/>
<polygon fill="black" stroke="black" points="102.78,-1171.41 92.71,-1174.69 102.63,-1178.41 102.78,-1171.41"/>
<text text-anchor="middle" x="125.62" y="-1177.8" font-family="Times,serif" font-size="14.00">space</text>
</g>
<!-- b -->
<g id="node4" class="node">
<title>b</title>
<ellipse fill="none" stroke="black" cx="114" cy="-1092.73" rx="18" ry="18"/>
<text text-anchor="middle" x="114" y="-1087.68" font-family="Times,serif" font-size="14.00">b</text>
</g>
<!-- a0&#45;&gt;b -->
<g id="edge4" class="edge">
<title>a0&#45;&gt;b</title>
<path fill="none" stroke="black" d="M81.1,-1164.44C87.01,-1151.73 95.13,-1134.28 101.83,-1119.89"/>
<polygon fill="black" stroke="black" points="104.92,-1121.54 105.97,-1110.99 98.58,-1118.58 104.92,-1121.54"/>
<text text-anchor="middle" x="110.67" y="-1131.93" font-family="Times,serif" font-size="14.00">slash</text>
</g>
<!-- c -->
<g id="node5" class="node">
<title>c</title>
<ellipse fill="none" stroke="black" cx="76" cy="-1000.23" rx="18" ry="18"/>
<text text-anchor="middle" x="76" y="-995.18" font-family="Times,serif" font-size="14.00">c</text>
</g>
<!-- a0&#45;&gt;c -->
<g id="edge5" class="edge">
<title>a0&#45;&gt;c</title>
<path fill="none" stroke="black" d="M73.32,-1162.86C73.84,-1131.07 74.91,-1066.9 75.53,-1029.69"/>
<polygon fill="black" stroke="black" points="79.02,-1030.2 75.69,-1020.14 72.02,-1030.08 79.02,-1030.2"/>
<text text-anchor="middle" x="77.75" y="-1087.68" font-family="Times,serif" font-size="14.00">ε</text>
</g>
<!-- b&#45;&gt;c -->
<g id="edge6" class="edge">
<title>b&#45;&gt;c</title>
<path fill="none" stroke="black" d="M102.98,-1078.1C98.41,-1071.89 93.4,-1064.25 90,-1056.73 86.16,-1048.23 83.26,-1038.5 81.11,-1029.58"/>
<polygon fill="black" stroke="black" points="84.58,-1029.03 79.05,-1019.99 77.73,-1030.5 84.58,-1029.03"/>
<text text-anchor="middle" x="93" y="-1043.43" font-family="Times,serif" font-size="14.00">ε</text>
</g>
<!-- k -->
<g id="node9" class="node">
<title>k</title>
<ellipse fill="none" stroke="black" cx="182" cy="-1000.23" rx="18" ry="18"/>
<ellipse fill="none" stroke="black" cx="182" cy="-1000.23" rx="22" ry="22"/>
<text text-anchor="middle" x="182" y="-995.18" font-family="Times,serif" font-size="14.00">k</text>
</g>
<!-- b&#45;&gt;k -->
<g id="edge15" class="edge">
<title>b&#45;&gt;k</title>
<path fill="none" stroke="black" d="M124.62,-1077.59C134.68,-1064.21 150.02,-1043.79 162.31,-1027.43"/>
<polygon fill="black" stroke="black" points="165.01,-1029.66 168.22,-1019.57 159.42,-1025.46 165.01,-1029.66"/>
<text text-anchor="middle" x="155.07" y="-1043.43" font-family="Times,serif" font-size="14.00">ε</text>
</g>
<!-- c&#45;&gt;b -->
<g id="edge8" class="edge">
<title>c&#45;&gt;b</title>
<path fill="none" stroke="black" d="M83.03,-1017.13C86.13,-1024.19 89.79,-1032.61 93,-1040.23 96.37,-1048.21 99.95,-1056.92 103.19,-1064.87"/>
<polygon fill="black" stroke="black" points="99.91,-1066.09 106.91,-1074.05 106.4,-1063.46 99.91,-1066.09"/>
<text text-anchor="middle" x="112.96" y="-1043.43" font-family="Times,serif" font-size="14.00">slash</text>
</g>
<!-- c&#45;&gt;c -->
<g id="edge7" class="edge">
<title>c&#45;&gt;c</title>
<path fill="none" stroke="black" d="M92.29,-1008.64C102.39,-1010.66 112,-1007.86 112,-1000.23 112,-995.7 108.61,-992.87 103.74,-991.74"/>
<polygon fill="black" stroke="black" points="103.78,-988.24 93.8,-991.81 103.83,-995.24 103.78,-988.24"/>
<text text-anchor="middle" x="127" y="-995.18" font-family="Times,serif" font-size="14.00">space</text>
</g>
<!-- c2 -->
<g id="node6" class="node">
<title>c2</title>
<ellipse fill="none" stroke="black" cx="60" cy="-723.98" rx="19.62" ry="19.62"/>
<text text-anchor="middle" x="60" y="-718.93" font-family="Times,serif" font-size="14.00">c2</text>
</g>
<!-- c&#45;&gt;c2 -->
<g id="edge9" class="edge">
<title>c&#45;&gt;c2</title>
<path fill="none" stroke="black" d="M73.24,-982.03C71.3,-969.28 68.83,-951.47 67.5,-935.73 62.08,-871.62 60.57,-796.21 60.15,-755.23"/>
<polygon fill="black" stroke="black" points="63.65,-755.39 60.07,-745.42 56.65,-755.45 63.65,-755.39"/>
<text text-anchor="start" x="72.38" y="-888.43" font-family="Times,serif" font-size="14.00">LF</text>
<text text-anchor="start" x="67.5" y="-871.93" font-family="Times,serif" font-size="14.00">EOF</text>
</g>
<!-- e -->
<g id="node8" class="node">
<title>e</title>
<ellipse fill="none" stroke="black" cx="120" cy="-885.23" rx="18" ry="18"/>
<text text-anchor="middle" x="120" y="-880.18" font-family="Times,serif" font-size="14.00">e</text>
</g>
<!-- c&#45;&gt;e -->
<g id="edge11" class="edge">
<title>c&#45;&gt;e</title>
<path fill="none" stroke="black" d="M82.3,-983.04C89.43,-964.74 101.13,-934.69 109.61,-912.91"/>
<polygon fill="black" stroke="black" points="112.79,-914.39 113.16,-903.8 106.27,-911.85 112.79,-914.39"/>
<text text-anchor="middle" x="124.43" y="-946.93" font-family="Times,serif" font-size="14.00">lcomment</text>
</g>
<!-- d -->
<g id="node7" class="node">
<title>d</title>
<ellipse fill="none" stroke="black" cx="60" cy="-575.23" rx="18" ry="18"/>
<ellipse fill="none" stroke="black" cx="60" cy="-575.23" rx="22" ry="22"/>
<text text-anchor="middle" x="60" y="-570.18" font-family="Times,serif" font-size="14.00">d</text>
</g>
<!-- c2&#45;&gt;d -->
<g id="edge10" class="edge">
<title>c2&#45;&gt;d</title>
<path fill="none" stroke="black" d="M60,-704.09C60,-680.01 60,-637.98 60,-608.71"/>
<polygon fill="black" stroke="black" points="63.5,-608.93 60,-598.93 56.5,-608.93 63.5,-608.93"/>
<text text-anchor="start" x="69.75" y="-634.93" font-family="Times,serif" font-size="14.00">ε</text>
<text text-anchor="start" x="60" y="-618.43" font-family="Times,serif" font-size="14.00">EOF</text>
</g>
<!-- d&#45;&gt;a -->
<g id="edge12" class="edge">
<title>d&#45;&gt;a</title>
<path fill="none" stroke="black" d="M51.73,-595.81C44.62,-613.76 34.92,-641.25 31,-666.23 4.7,-833.62 34,-878.03 34,-1047.48 34,-1183.85 34,-1183.85 34,-1183.85 34,-1207.34 45.74,-1231.58 56.33,-1248.67"/>
<polygon fill="black" stroke="black" points="53.11,-1250.13 61.51,-1256.58 58.96,-1246.3 53.11,-1250.13"/>
<text text-anchor="middle" x="36.76" y="-995.18" font-family="Times,serif" font-size="14.00">ε</text>
</g>
<!-- e&#45;&gt;c2 -->
<g id="edge13" class="edge">
<title>e&#45;&gt;c2</title>
<path fill="none" stroke="black" d="M108.73,-870.6C104.03,-864.39 98.85,-856.75 95.25,-849.23 80.57,-818.53 70.91,-780.56 65.47,-754.73"/>
<polygon fill="black" stroke="black" points="68.97,-754.39 63.57,-745.27 62.11,-755.77 68.97,-754.39"/>
<text text-anchor="middle" x="103.12" y="-819.43" font-family="Times,serif" font-size="14.00">LF</text>
</g>
<!-- e&#45;&gt;d -->
<g id="edge14" class="edge">
<title>e&#45;&gt;d</title>
<path fill="none" stroke="black" d="M121.2,-867.08C123.63,-823.3 126.13,-704.52 90,-615.23 87.95,-610.15 85.04,-605.17 81.83,-600.55"/>
<polygon fill="black" stroke="black" points="84.81,-598.68 75.94,-592.89 79.26,-602.95 84.81,-598.68"/>
<text text-anchor="middle" x="134.22" y="-718.93" font-family="Times,serif" font-size="14.00" fill="red">EOF</text>
</g>
<!-- k&#45;&gt;h -->
<g id="edge16" class="edge">
<title>k&#45;&gt;h</title>
<path fill="none" stroke="black" d="M190.19,-979.54C197.86,-961.08 209.41,-933.34 217.91,-912.89"/>
<polygon fill="black" stroke="black" points="221.09,-914.37 221.69,-903.79 214.62,-911.68 221.09,-914.37"/>
<text text-anchor="middle" x="207.09" y="-946.93" font-family="Times,serif" font-size="14.00">ε</text>
</g>
<!-- h&#45;&gt;h -->
<g id="edge18" class="edge">
<title>h&#45;&gt;h</title>
<path fill="none" stroke="black" d="M244.17,-895.51C254.66,-898.62 265,-895.19 265,-885.23 265,-879 260.96,-875.32 255.37,-874.2"/>
<polygon fill="black" stroke="black" points="255.42,-870.69 245.68,-874.85 255.89,-877.68 255.42,-870.69"/>
<text text-anchor="start" x="270.62" y="-888.43" font-family="Times,serif" font-size="14.00">space</text>
<text text-anchor="start" x="265" y="-871.93" font-family="Times,serif" font-size="14.00" fill="red">comma</text>
</g>
<!-- i -->
<g id="node11" class="node">
<title>i</title>
<ellipse fill="none" stroke="black" cx="469" cy="-723.98" rx="18" ry="18"/>
<text text-anchor="middle" x="469" y="-718.93" font-family="Times,serif" font-size="14.00">i</text>
</g>
<!-- h&#45;&gt;i -->
<g id="edge19" class="edge">
<title>h&#45;&gt;i</title>
<path fill="none" stroke="black" d="M243.65,-874.51C283.74,-847.91 395.5,-773.74 444.95,-740.94"/>
<polygon fill="black" stroke="black" points="446.58,-744.06 452.97,-735.61 442.71,-738.22 446.58,-744.06"/>
<text text-anchor="start" x="356.2" y="-835.93" font-family="Times,serif" font-size="14.00">mnemo</text>
<text text-anchor="start" x="368.95" y="-819.43" font-family="Times,serif" font-size="14.00">val</text>
<text text-anchor="start" x="367.07" y="-802.93" font-family="Times,serif" font-size="14.00" fill="red">unk</text>
</g>
<!-- j -->
<g id="node29" class="node">
<title>j</title>
<ellipse fill="none" stroke="black" cx="229" cy="-723.98" rx="18" ry="18"/>
<text text-anchor="middle" x="229" y="-718.93" font-family="Times,serif" font-size="14.00">j</text>
</g>
<!-- h&#45;&gt;j -->
<g id="edge47" class="edge">
<title>h&#45;&gt;j</title>
<path fill="none" stroke="black" d="M229,-866.88C229,-839.6 229,-786.38 229,-753.44"/>
<polygon fill="black" stroke="black" points="232.5,-753.82 229,-743.82 225.5,-753.82 232.5,-753.82"/>
<text text-anchor="start" x="229" y="-827.68" font-family="Times,serif" font-size="14.00">lbldef</text>
<text text-anchor="start" x="230.12" y="-811.18" font-family="Times,serif" font-size="14.00" fill="red">lblref</text>
</g>
<!-- i&#45;&gt;i -->
<g id="edge20" class="edge">
<title>i&#45;&gt;i</title>
<path fill="none" stroke="black" d="M480.8,-737.72C492.33,-745.32 505,-740.73 505,-723.98 505,-712.46 499.01,-706.69 491.52,-706.68"/>
<polygon fill="black" stroke="black" points="490.63,-703.29 482.24,-709.76 492.83,-709.93 490.63,-703.29"/>
<text text-anchor="start" x="505" y="-768.43" font-family="Times,serif" font-size="14.00">mnemo</text>
<text text-anchor="start" x="517.75" y="-751.93" font-family="Times,serif" font-size="14.00">val</text>
<text text-anchor="start" x="511.38" y="-735.43" font-family="Times,serif" font-size="14.00">lblref</text>
<text text-anchor="start" x="510.25" y="-718.93" font-family="Times,serif" font-size="14.00" fill="red">lbldef</text>
<text text-anchor="start" x="511" y="-702.43" font-family="Times,serif" font-size="14.00">space</text>
<text text-anchor="start" x="505.38" y="-685.93" font-family="Times,serif" font-size="14.00" fill="orange">comma</text>
<text text-anchor="start" x="515.88" y="-669.43" font-family="Times,serif" font-size="14.00" fill="red">unk</text>
</g>
<!-- l -->
<g id="node12" class="node">
<title>l</title>
<ellipse fill="none" stroke="black" cx="430" cy="-575.23" rx="18" ry="18"/>
<text text-anchor="middle" x="430" y="-570.18" font-family="Times,serif" font-size="14.00">l</text>
</g>
<!-- i&#45;&gt;l -->
<g id="edge21" class="edge">
<title>i&#45;&gt;l</title>
<path fill="none" stroke="black" d="M459.32,-708.57C450.17,-694.04 437.05,-670.63 431.5,-648.23 428.02,-634.2 427.38,-618.16 427.72,-604.78"/>
<polygon fill="black" stroke="black" points="431.21,-605.05 428.19,-594.89 424.22,-604.72 431.21,-605.05"/>
<text text-anchor="middle" x="459.25" y="-626.68" font-family="Times,serif" font-size="14.00">lcomment</text>
</g>
<!-- f2 -->
<g id="node14" class="node">
<title>f2</title>
<ellipse fill="none" stroke="black" cx="509" cy="-575.23" rx="18.6" ry="18.6"/>
<text text-anchor="middle" x="509" y="-570.18" font-family="Times,serif" font-size="14.00">f2</text>
</g>
<!-- i&#45;&gt;f2 -->
<g id="edge25" class="edge">
<title>i&#45;&gt;f2</title>
<path fill="none" stroke="black" d="M473.59,-706.14C480.36,-681.29 493.13,-634.46 501.34,-604.34"/>
<polygon fill="black" stroke="black" points="504.69,-605.35 503.94,-594.78 497.94,-603.5 504.69,-605.35"/>
<text text-anchor="middle" x="501.27" y="-626.68" font-family="Times,serif" font-size="14.00">ε</text>
</g>
<!-- t -->
<g id="node22" class="node">
<title>t</title>
<ellipse fill="none" stroke="black" cx="576" cy="-575.23" rx="18" ry="18"/>
<text text-anchor="middle" x="576" y="-570.18" font-family="Times,serif" font-size="14.00">t</text>
</g>
<!-- i&#45;&gt;t -->
<g id="edge35" class="edge">
<title>i&#45;&gt;t</title>
<path fill="none" stroke="black" d="M479.26,-708.91C497.67,-683.66 536.47,-630.44 558.94,-599.62"/>
<polygon fill="black" stroke="black" points="561.66,-601.84 564.72,-591.69 556,-597.71 561.66,-601.84"/>
<text text-anchor="middle" x="550.3" y="-626.68" font-family="Times,serif" font-size="14.00">ε</text>
</g>
<!-- d2 -->
<g id="node13" class="node">
<title>d2</title>
<ellipse fill="none" stroke="black" cx="387" cy="-462.14" rx="20.13" ry="20.13"/>
<text text-anchor="middle" x="387" y="-457.09" font-family="Times,serif" font-size="14.00">d2</text>
</g>
<!-- l&#45;&gt;d2 -->
<g id="edge24" class="edge">
<title>l&#45;&gt;d2</title>
<path fill="none" stroke="black" d="M422.95,-558.37C419.88,-551.32 416.29,-542.9 413.25,-535.23 407.71,-521.25 401.95,-505.57 397.24,-492.42"/>
<polygon fill="black" stroke="black" points="400.55,-491.3 393.91,-483.05 393.96,-493.64 400.55,-491.3"/>
<text text-anchor="middle" x="421.12" y="-513.68" font-family="Times,serif" font-size="14.00">LF</text>
</g>
<!-- m -->
<g id="node21" class="node">
<title>m</title>
<ellipse fill="none" stroke="black" cx="419" cy="-346.93" rx="18.6" ry="18.6"/>
<ellipse fill="none" stroke="black" cx="419" cy="-346.93" rx="22.6" ry="22.6"/>
<text text-anchor="middle" x="419" y="-341.88" font-family="Times,serif" font-size="14.00">m</text>
</g>
<!-- l&#45;&gt;m -->
<g id="edge23" class="edge">
<title>l&#45;&gt;m</title>
<path fill="none" stroke="black" d="M431.25,-556.78C433.32,-523.85 436.51,-450.32 429,-389.06 428.65,-386.19 428.17,-383.23 427.61,-380.27"/>
<polygon fill="black" stroke="black" points="431.04,-379.59 425.47,-370.58 424.21,-381.1 431.04,-379.59"/>
<text text-anchor="middle" x="446.47" y="-457.09" font-family="Times,serif" font-size="14.00" fill="red">EOF</text>
</g>
<!-- d2&#45;&gt;m -->
<g id="edge22" class="edge">
<title>d2&#45;&gt;m</title>
<path fill="none" stroke="black" d="M390.65,-441.99C393.61,-427.36 398.17,-406.76 403.5,-389.06 404.5,-385.73 405.64,-382.29 406.83,-378.87"/>
<polygon fill="black" stroke="black" points="410.05,-380.26 410.2,-369.67 403.48,-377.85 410.05,-380.26"/>
<text text-anchor="start" x="413.25" y="-408.76" font-family="Times,serif" font-size="14.00">ε</text>
<text text-anchor="start" x="403.5" y="-392.26" font-family="Times,serif" font-size="14.00">EOF</text>
</g>
<!-- j2 -->
<g id="node17" class="node">
<title>j2</title>
<ellipse fill="none" stroke="black" cx="509" cy="-462.14" rx="18.08" ry="18.08"/>
<ellipse fill="none" stroke="black" cx="509" cy="-462.14" rx="22.08" ry="22.08"/>
<text text-anchor="middle" x="509" y="-457.09" font-family="Times,serif" font-size="14.00">j2</text>
</g>
<!-- f2&#45;&gt;j2 -->
<g id="edge26" class="edge">
<title>f2&#45;&gt;j2</title>
<path fill="none" stroke="black" d="M509,-556.38C509,-540.05 509,-515.49 509,-495.68"/>
<polygon fill="black" stroke="black" points="512.5,-495.88 509,-485.88 505.5,-495.88 512.5,-495.88"/>
<text text-anchor="start" x="513.88" y="-521.93" font-family="Times,serif" font-size="14.00">LF</text>
<text text-anchor="start" x="509" y="-505.43" font-family="Times,serif" font-size="14.00" fill="red">EOF</text>
</g>
<!-- g2 -->
<g id="node15" class="node">
<title>g2</title>
<ellipse fill="none" stroke="black" cx="509" cy="-346.93" rx="20.13" ry="20.13"/>
<ellipse fill="none" stroke="black" cx="509" cy="-346.93" rx="24.13" ry="24.13"/>
<text text-anchor="middle" x="509" y="-341.88" font-family="Times,serif" font-size="14.00">g2</text>
</g>
<!-- i2 -->
<g id="node16" class="node">
<title>i2</title>
<ellipse fill="none" stroke="black" cx="528" cy="-250.17" rx="18.08" ry="18.08"/>
<text text-anchor="middle" x="528" y="-245.12" font-family="Times,serif" font-size="14.00">i2</text>
</g>
<!-- g2&#45;&gt;i2 -->
<g id="edge29" class="edge">
<title>g2&#45;&gt;i2</title>
<path fill="none" stroke="black" d="M519.31,-325.04C521.98,-318.69 524.52,-311.59 526,-304.8 527.76,-296.72 528.54,-287.81 528.81,-279.6"/>
<polygon fill="black" stroke="black" points="532.31,-279.81 528.88,-269.78 525.31,-279.76 532.31,-279.81"/>
<text text-anchor="middle" x="543.29" y="-291.5" font-family="Times,serif" font-size="14.00" fill="red">space</text>
</g>
<!-- k2 -->
<g id="node18" class="node">
<title>k2</title>
<ellipse fill="none" stroke="black" cx="430" cy="-250.17" rx="20.13" ry="20.13"/>
<text text-anchor="middle" x="430" y="-245.12" font-family="Times,serif" font-size="14.00">k2</text>
</g>
<!-- g2&#45;&gt;k2 -->
<g id="edge30" class="edge">
<title>g2&#45;&gt;k2</title>
<path fill="none" stroke="black" d="M486.82,-336.88C472.73,-330.05 455.19,-319.35 444.5,-304.8 439.53,-298.03 436.27,-289.67 434.12,-281.58"/>
<polygon fill="black" stroke="black" points="437.58,-281.05 432.08,-272 430.74,-282.51 437.58,-281.05"/>
<text text-anchor="middle" x="472.25" y="-291.5" font-family="Times,serif" font-size="14.00" fill="red">lcomment</text>
</g>
<!-- i2&#45;&gt;g2 -->
<g id="edge31" class="edge">
<title>i2&#45;&gt;g2</title>
<path fill="none" stroke="black" d="M517.41,-265.18C513.04,-271.82 508.48,-280.08 506.25,-288.3 504.25,-295.68 503.68,-303.79 503.88,-311.53"/>
<polygon fill="black" stroke="black" points="500.38,-311.61 504.57,-321.35 507.36,-311.13 500.38,-311.61"/>
<text text-anchor="middle" x="514.12" y="-291.5" font-family="Times,serif" font-size="14.00">LF</text>
</g>
<!-- j2&#45;&gt;g2 -->
<g id="edge28" class="edge">
<title>j2&#45;&gt;g2</title>
<path fill="none" stroke="black" d="M509,-439.58C509,-423.51 509,-401.21 509,-382.64"/>
<polygon fill="black" stroke="black" points="512.5,-382.87 509,-372.87 505.5,-382.87 512.5,-382.87"/>
<text text-anchor="middle" x="512" y="-400.51" font-family="Times,serif" font-size="14.00">ε</text>
</g>
<!-- j2&#45;&gt;j2 -->
<g id="edge27" class="edge">
<title>j2&#45;&gt;j2</title>
<path fill="none" stroke="black" d="M528.8,-472.32C539.41,-474.04 549.08,-470.65 549.08,-462.14 549.08,-456.96 545.49,-453.67 540.29,-452.29"/>
<polygon fill="black" stroke="black" points="540.4,-448.79 530.31,-452.01 540.21,-455.79 540.4,-448.79"/>
<text text-anchor="start" x="553.96" y="-465.34" font-family="Times,serif" font-size="14.00">LF</text>
<text text-anchor="start" x="549.08" y="-448.84" font-family="Times,serif" font-size="14.00">EOF</text>
</g>
<!-- m2 -->
<g id="node19" class="node">
<title>m2</title>
<ellipse fill="none" stroke="black" cx="402" cy="-154.33" rx="23.2" ry="23.2"/>
<text text-anchor="middle" x="402" y="-149.28" font-family="Times,serif" font-size="14.00">m2</text>
</g>
<!-- k2&#45;&gt;m2 -->
<g id="edge32" class="edge">
<title>k2&#45;&gt;m2</title>
<path fill="none" stroke="black" d="M424.47,-230.63C420.82,-218.41 415.95,-202.07 411.67,-187.74"/>
<polygon fill="black" stroke="black" points="415.05,-186.82 408.84,-178.24 408.34,-188.82 415.05,-186.82"/>
<text text-anchor="middle" x="426.38" y="-198.74" font-family="Times,serif" font-size="14.00">LF</text>
</g>
<!-- n2 -->
<g id="node20" class="node">
<title>n2</title>
<ellipse fill="none" stroke="black" cx="441" cy="-38" rx="20.13" ry="20.13"/>
<text text-anchor="middle" x="441" y="-32.95" font-family="Times,serif" font-size="14.00">n2</text>
</g>
<!-- k2&#45;&gt;n2 -->
<g id="edge33" class="edge">
<title>k2&#45;&gt;n2</title>
<path fill="none" stroke="black" d="M434.52,-230.36C435.79,-224.51 437.08,-218.03 438,-212.04 446.87,-153.95 451.25,-138.74 447,-80.13 446.75,-76.64 446.38,-73.01 445.94,-69.4"/>
<polygon fill="black" stroke="black" points="449.43,-69.11 444.59,-59.69 442.5,-70.07 449.43,-69.11"/>
<text text-anchor="middle" x="461.15" y="-149.28" font-family="Times,serif" font-size="14.00" fill="red">EOF</text>
</g>
<!-- m2&#45;&gt;n2 -->
<g id="edge34" class="edge">
<title>m2&#45;&gt;n2</title>
<path fill="none" stroke="black" d="M406.78,-131.23C410.22,-116.53 415.34,-96.92 421.5,-80.13 423.15,-75.62 425.12,-70.94 427.16,-66.42"/>
<polygon fill="black" stroke="black" points="430.18,-68.22 431.28,-57.68 423.85,-65.23 430.18,-68.22"/>
<text text-anchor="start" x="431.25" y="-99.83" font-family="Times,serif" font-size="14.00">ε</text>
<text text-anchor="start" x="421.5" y="-83.33" font-family="Times,serif" font-size="14.00">EOF</text>
</g>
<!-- u -->
<g id="node23" class="node">
<title>u</title>
<ellipse fill="none" stroke="black" cx="611" cy="-462.14" rx="18" ry="18"/>
<text text-anchor="middle" x="611" y="-457.09" font-family="Times,serif" font-size="14.00">u</text>
</g>
<!-- t&#45;&gt;u -->
<g id="edge36" class="edge">
<title>t&#45;&gt;u</title>
<path fill="none" stroke="black" d="M581.16,-557.84C586.75,-540.12 595.74,-511.58 602.39,-490.46"/>
<polygon fill="black" stroke="black" points="605.69,-491.63 605.36,-481.05 599.02,-489.53 605.69,-491.63"/>
<text text-anchor="middle" x="612.18" y="-513.68" font-family="Times,serif" font-size="14.00">slash</text>
</g>
<!-- u&#45;&gt;u -->
<g id="edge37" class="edge">
<title>u&#45;&gt;u</title>
<path fill="none" stroke="black" d="M626.54,-471.82C636.91,-474.54 647,-471.32 647,-462.14 647,-456.55 643.25,-453.17 637.98,-452"/>
<polygon fill="black" stroke="black" points="637.9,-448.5 628.05,-452.41 638.19,-455.49 637.9,-448.5"/>
<text text-anchor="middle" x="660.5" y="-457.09" font-family="Times,serif" font-size="14.00">slash</text>
</g>
<!-- v -->
<g id="node24" class="node">
<title>v</title>
<ellipse fill="none" stroke="black" cx="588" cy="-346.93" rx="18" ry="18"/>
<text text-anchor="middle" x="588" y="-341.88" font-family="Times,serif" font-size="14.00">v</text>
</g>
<!-- u&#45;&gt;v -->
<g id="edge38" class="edge">
<title>u&#45;&gt;v</title>
<path fill="none" stroke="black" d="M597.07,-450.1C592.89,-446.83 588.28,-443.27 584,-440.06 573.05,-431.84 565.24,-434.25 559,-422.06 552.31,-409.01 554.57,-403.04 559,-389.06 561.22,-382.06 565.1,-375.23 569.32,-369.21"/>
<polygon fill="black" stroke="black" points="571.78,-371.75 575.11,-361.7 566.23,-367.48 571.78,-371.75"/>
<text text-anchor="middle" x="574" y="-400.51" font-family="Times,serif" font-size="14.00">space</text>
</g>
<!-- z -->
<g id="node25" class="node">
<title>z</title>
<ellipse fill="none" stroke="black" cx="661" cy="-346.93" rx="18" ry="18"/>
<text text-anchor="middle" x="661" y="-341.88" font-family="Times,serif" font-size="14.00">z</text>
</g>
<!-- u&#45;&gt;z -->
<g id="edge40" class="edge">
<title>u&#45;&gt;z</title>
<path fill="none" stroke="black" d="M620.39,-446.64C624.84,-439.42 630.04,-430.46 634,-422.06 641.14,-406.91 647.62,-389.31 652.45,-375.07"/>
<polygon fill="black" stroke="black" points="655.66,-376.5 655.46,-365.91 649.01,-374.31 655.66,-376.5"/>
<text text-anchor="middle" x="650.16" y="-400.51" font-family="Times,serif" font-size="14.00">ε</text>
</g>
<!-- v&#45;&gt;u -->
<g id="edge39" class="edge">
<title>v&#45;&gt;u</title>
<path fill="none" stroke="black" d="M591.48,-365.07C595.15,-383.12 600.98,-411.82 605.31,-433.16"/>
<polygon fill="black" stroke="black" points="601.88,-433.85 607.3,-442.95 608.74,-432.46 601.88,-433.85"/>
<text text-anchor="middle" x="616.4" y="-400.51" font-family="Times,serif" font-size="14.00" fill="red">slash</text>
</g>
<!-- z&#45;&gt;z -->
<g id="edge41" class="edge">
<title>z&#45;&gt;z</title>
<path fill="none" stroke="black" d="M676.92,-355.63C687.15,-357.9 697,-355 697,-346.93 697,-342.01 693.34,-339.01 688.17,-337.94"/>
<polygon fill="black" stroke="black" points="688.33,-334.43 678.43,-338.19 688.52,-341.43 688.33,-334.43"/>
<text text-anchor="middle" x="712" y="-341.88" font-family="Times,serif" font-size="14.00">space</text>
</g>
<!-- a2 -->
<g id="node26" class="node">
<title>a2</title>
<ellipse fill="none" stroke="black" cx="633" cy="-250.17" rx="19.62" ry="19.62"/>
<text text-anchor="middle" x="633" y="-245.12" font-family="Times,serif" font-size="14.00">a2</text>
</g>
<!-- z&#45;&gt;a2 -->
<g id="edge42" class="edge">
<title>z&#45;&gt;a2</title>
<path fill="none" stroke="black" d="M648.94,-332.96C642.72,-325.37 635.77,-315.25 632.5,-304.8 630.18,-297.36 629.42,-289.06 629.47,-281.25"/>
<polygon fill="black" stroke="black" points="632.95,-281.62 629.96,-271.46 625.96,-281.27 632.95,-281.62"/>
<text text-anchor="middle" x="660.25" y="-291.5" font-family="Times,serif" font-size="14.00">lcomment</text>
</g>
<!-- e2 -->
<g id="node28" class="node">
<title>e2</title>
<ellipse fill="none" stroke="black" cx="696" cy="-154.33" rx="19.62" ry="19.62"/>
<text text-anchor="middle" x="696" y="-149.28" font-family="Times,serif" font-size="14.00">e2</text>
</g>
<!-- z&#45;&gt;e2 -->
<g id="edge43" class="edge">
<title>z&#45;&gt;e2</title>
<path fill="none" stroke="black" d="M672.22,-332.79C678.05,-325.15 684.64,-315.02 688,-304.8 701.02,-265.13 700.85,-216.38 698.92,-185.57"/>
<polygon fill="black" stroke="black" points="702.42,-185.54 698.19,-175.82 695.44,-186.06 702.42,-185.54"/>
<text text-anchor="middle" x="707.47" y="-245.12" font-family="Times,serif" font-size="14.00" fill="red">LF</text>
</g>
<!-- b2 -->
<g id="node27" class="node">
<title>b2</title>
<ellipse fill="none" stroke="black" cx="657" cy="-38" rx="20.13" ry="20.13"/>
<ellipse fill="none" stroke="black" cx="657" cy="-38" rx="24.13" ry="24.13"/>
<text text-anchor="middle" x="657" y="-32.95" font-family="Times,serif" font-size="14.00">b2</text>
</g>
<!-- a2&#45;&gt;b2 -->
<g id="edge44" class="edge">
<title>a2&#45;&gt;b2</title>
<path fill="none" stroke="black" d="M633.81,-230.31C634.93,-206.96 637.32,-166.01 641.5,-131.13 643.81,-111.9 647.33,-90.56 650.44,-73.26"/>
<polygon fill="black" stroke="black" points="653.87,-73.96 652.23,-63.5 646.99,-72.7 653.87,-73.96"/>
<text text-anchor="middle" x="654.25" y="-149.28" font-family="Times,serif" font-size="14.00" fill="red">EOF</text>
</g>
<!-- a2&#45;&gt;e2 -->
<g id="edge45" class="edge">
<title>a2&#45;&gt;e2</title>
<path fill="none" stroke="black" d="M643.69,-233.25C653.37,-218.82 667.81,-197.33 679.06,-180.56"/>
<polygon fill="black" stroke="black" points="681.75,-182.84 684.42,-172.59 675.94,-178.94 681.75,-182.84"/>
<text text-anchor="middle" x="676.15" y="-198.74" font-family="Times,serif" font-size="14.00">LF</text>
</g>
<!-- e2&#45;&gt;b2 -->
<g id="edge46" class="edge">
<title>e2&#45;&gt;b2</title>
<path fill="none" stroke="black" d="M689.82,-135.22C684.06,-118.32 675.32,-92.71 668.31,-72.16"/>
<polygon fill="black" stroke="black" points="671.65,-71.12 665.11,-62.78 665.03,-73.38 671.65,-71.12"/>
<text text-anchor="start" x="692.02" y="-99.83" font-family="Times,serif" font-size="14.00">ε</text>
<text text-anchor="start" x="682.27" y="-83.33" font-family="Times,serif" font-size="14.00">EOF</text>
</g>
<!-- n -->
<g id="node30" class="node">
<title>n</title>
<ellipse fill="none" stroke="black" cx="258" cy="-575.23" rx="18" ry="18"/>
<text text-anchor="middle" x="258" y="-570.18" font-family="Times,serif" font-size="14.00">n</text>
</g>
<!-- j&#45;&gt;n -->
<g id="edge48" class="edge">
<title>j&#45;&gt;n</title>
<path fill="none" stroke="black" d="M232.38,-705.86C237.32,-680.89 246.54,-634.22 252.47,-604.22"/>
<polygon fill="black" stroke="black" points="255.84,-605.21 254.34,-594.72 248.97,-603.86 255.84,-605.21"/>
<text text-anchor="middle" x="253.22" y="-626.68" font-family="Times,serif" font-size="14.00">ε</text>
</g>
<!-- s -->
<g id="node35" class="node">
<title>s</title>
<ellipse fill="none" stroke="black" cx="229" cy="-38" rx="18" ry="18"/>
<ellipse fill="none" stroke="black" cx="229" cy="-38" rx="22" ry="22"/>
<text text-anchor="middle" x="229" y="-32.95" font-family="Times,serif" font-size="14.00">s</text>
</g>
<!-- j&#45;&gt;s -->
<g id="edge49" class="edge">
<title>j&#45;&gt;s</title>
<path fill="none" stroke="black" d="M225.14,-705.91C219.33,-678.65 209,-623.54 209,-576.23 209,-576.23 209,-576.23 209,-404.56 209,-281.55 220.43,-135.61 226.01,-71.71"/>
<polygon fill="black" stroke="black" points="229.48,-72.18 226.88,-61.91 222.51,-71.56 229.48,-72.18"/>
<text text-anchor="middle" x="213.37" y="-341.88" font-family="Times,serif" font-size="14.00">ε</text>
</g>
<!-- n&#45;&gt;n -->
<g id="edge50" class="edge">
<title>n&#45;&gt;n</title>
<path fill="none" stroke="black" d="M273.54,-584.89C283.91,-587.61 294,-584.39 294,-575.23 294,-569.65 290.25,-566.27 284.98,-565.1"/>
<polygon fill="black" stroke="black" points="284.9,-561.6 275.05,-565.51 285.19,-568.59 284.9,-561.6"/>
<text text-anchor="middle" x="309" y="-570.18" font-family="Times,serif" font-size="14.00">space</text>
</g>
<!-- o -->
<g id="node31" class="node">
<title>o</title>
<ellipse fill="none" stroke="black" cx="258" cy="-462.14" rx="18" ry="18"/>
<text text-anchor="middle" x="258" y="-457.09" font-family="Times,serif" font-size="14.00">o</text>
</g>
<!-- n&#45;&gt;o -->
<g id="edge51" class="edge">
<title>n&#45;&gt;o</title>
<path fill="none" stroke="black" d="M258,-556.87C258,-539.43 258,-512.24 258,-491.63"/>
<polygon fill="black" stroke="black" points="261.5,-491.89 258,-481.89 254.5,-491.89 261.5,-491.89"/>
<text text-anchor="middle" x="271.5" y="-513.68" font-family="Times,serif" font-size="14.00">slash</text>
</g>
<!-- p -->
<g id="node32" class="node">
<title>p</title>
<ellipse fill="none" stroke="black" cx="285" cy="-346.93" rx="18" ry="18"/>
<text text-anchor="middle" x="285" y="-341.88" font-family="Times,serif" font-size="14.00">p</text>
</g>
<!-- n&#45;&gt;p -->
<g id="edge52" class="edge">
<title>n&#45;&gt;p</title>
<path fill="none" stroke="black" d="M270.5,-562C277.07,-554.82 284.65,-545.22 289,-535.23 309.29,-488.59 302.21,-472.78 306,-422.06 307.09,-407.43 309.43,-403.32 306,-389.06 304.66,-383.51 302.45,-377.86 299.94,-372.6"/>
<polygon fill="black" stroke="black" points="303.07,-371.03 295.29,-363.84 296.89,-374.31 303.07,-371.03"/>
<text text-anchor="middle" x="307.97" y="-457.09" font-family="Times,serif" font-size="14.00">ε</text>
</g>
<!-- o&#45;&gt;p -->
<g id="edge53" class="edge">
<title>o&#45;&gt;p</title>
<path fill="none" stroke="black" d="M256.8,-443.88C256.28,-429.05 256.72,-407.23 262,-389.06 263.7,-383.22 266.35,-377.3 269.26,-371.84"/>
<polygon fill="black" stroke="black" points="272.19,-373.77 274.22,-363.37 266.14,-370.23 272.19,-373.77"/>
<text text-anchor="middle" x="265" y="-400.51" font-family="Times,serif" font-size="14.00">ε</text>
</g>
<!-- o&#45;&gt;s -->
<g id="edge54" class="edge">
<title>o&#45;&gt;s</title>
<path fill="none" stroke="black" d="M255.57,-444.05C254.66,-437.22 253.69,-429.28 253,-422.06 240.67,-292.48 233.18,-137.62 230.33,-71.5"/>
<polygon fill="black" stroke="black" points="233.83,-71.57 229.91,-61.73 226.84,-71.87 233.83,-71.57"/>
<text text-anchor="middle" x="243.89" y="-245.12" font-family="Times,serif" font-size="14.00">ε</text>
</g>
<!-- p&#45;&gt;o -->
<g id="edge56" class="edge">
<title>p&#45;&gt;o</title>
<path fill="none" stroke="black" d="M281,-364.7C276.69,-382.79 269.75,-411.88 264.62,-433.39"/>
<polygon fill="black" stroke="black" points="261.25,-432.43 262.34,-442.97 268.06,-434.05 261.25,-432.43"/>
<text text-anchor="middle" x="288.21" y="-400.51" font-family="Times,serif" font-size="14.00">slash</text>
</g>
<!-- p&#45;&gt;p -->
<g id="edge55" class="edge">
<title>p&#45;&gt;p</title>
<path fill="none" stroke="black" d="M300.92,-355.63C311.15,-357.9 321,-355 321,-346.93 321,-342.01 317.34,-339.01 312.17,-337.94"/>
<polygon fill="black" stroke="black" points="312.33,-334.43 302.43,-338.19 312.52,-341.43 312.33,-334.43"/>
<text text-anchor="middle" x="336" y="-341.88" font-family="Times,serif" font-size="14.00">space</text>
</g>
<!-- r -->
<g id="node33" class="node">
<title>r</title>
<ellipse fill="none" stroke="black" cx="333" cy="-250.17" rx="18" ry="18"/>
<text text-anchor="middle" x="333" y="-245.12" font-family="Times,serif" font-size="14.00">r</text>
</g>
<!-- p&#45;&gt;r -->
<g id="edge57" class="edge">
<title>p&#45;&gt;r</title>
<path fill="none" stroke="black" d="M292.93,-330.28C300.29,-315.74 311.39,-293.82 320.05,-276.74"/>
<polygon fill="black" stroke="black" points="322.98,-278.69 324.38,-268.19 316.74,-275.53 322.98,-278.69"/>
<text text-anchor="middle" x="341.05" y="-291.5" font-family="Times,serif" font-size="14.00">lcomment</text>
</g>
<!-- h2 -->
<g id="node34" class="node">
<title>h2</title>
<ellipse fill="none" stroke="black" cx="331" cy="-154.33" rx="20.13" ry="20.13"/>
<text text-anchor="middle" x="331" y="-149.28" font-family="Times,serif" font-size="14.00">h2</text>
</g>
<!-- p&#45;&gt;h2 -->
<g id="edge58" class="edge">
<title>p&#45;&gt;h2</title>
<path fill="none" stroke="black" d="M280.92,-328.98C276.14,-305.99 270.12,-263.92 280.5,-230.04 286.35,-210.94 298.91,-192.33 310.04,-178.46"/>
<polygon fill="black" stroke="black" points="312.69,-180.73 316.44,-170.82 307.33,-176.24 312.69,-180.73"/>
<text text-anchor="start" x="285.38" y="-253.37" font-family="Times,serif" font-size="14.00">LF</text>
<text text-anchor="start" x="280.5" y="-236.87" font-family="Times,serif" font-size="14.00">EOF</text>
</g>
<!-- r&#45;&gt;h2 -->
<g id="edge59" class="edge">
<title>r&#45;&gt;h2</title>
<path fill="none" stroke="black" d="M332.63,-231.96C332.36,-219.18 331.98,-201.41 331.66,-186.21"/>
<polygon fill="black" stroke="black" points="335.16,-186.14 331.45,-176.21 328.16,-186.29 335.16,-186.14"/>
<text text-anchor="middle" x="340.05" y="-198.74" font-family="Times,serif" font-size="14.00">LF</text>
</g>
<!-- r&#45;&gt;s -->
<g id="edge60" class="edge">
<title>r&#45;&gt;s</title>
<path fill="none" stroke="black" d="M320.71,-236.4C308.14,-222.76 288.78,-200.06 276.5,-177.54 257.68,-143 244.26,-99.62 236.59,-70.69"/>
<polygon fill="black" stroke="black" points="240,-69.9 234.12,-61.09 233.22,-71.64 240,-69.9"/>
<text text-anchor="middle" x="289.25" y="-149.28" font-family="Times,serif" font-size="14.00" fill="red">EOF</text>
</g>
<!-- h2&#45;&gt;s -->
<g id="edge61" class="edge">
<title>h2&#45;&gt;s</title>
<path fill="none" stroke="black" d="M319.35,-137.71C307.83,-122.56 289.45,-99.12 272,-80.13 266.14,-73.75 259.5,-67.13 253.23,-61.12"/>
<polygon fill="black" stroke="black" points="255.78,-58.73 246.1,-54.42 250.99,-63.82 255.78,-58.73"/>
<text text-anchor="start" x="308.56" y="-99.83" font-family="Times,serif" font-size="14.00">ε</text>
<text text-anchor="start" x="298.81" y="-83.33" font-family="Times,serif" font-size="14.00">EOF</text>
</g>
<!-- s&#45;&gt;h -->
<g id="edge62" class="edge">
<title>s&#45;&gt;h</title>
<path fill="none" stroke="black" d="M214.91,-55.16C198.03,-76.24 172,-114.96 172,-153.33 172,-297.55 172,-297.55 172,-297.55 172,-370.65 189,-388.04 189,-461.14 189,-724.98 189,-724.98 189,-724.98 189,-772.96 206.29,-826.69 218.14,-857.87"/>
<polygon fill="black" stroke="black" points="214.76,-858.84 221.66,-866.87 221.28,-856.29 214.76,-858.84"/>
<text text-anchor="middle" x="189.99" y="-400.51" font-family="Times,serif" font-size="14.00">ε</text>
</g>
</g>
</svg>
